<?xml version="1.0" encoding="utf-8"?>
<svg version="1.1" xmlns:xlink="http://www.w3.org/1999/xlink" width="48px" height="40px" xmlns="http://www.w3.org/2000/svg">
  <g transform="matrix(1 0 0 1 -693 -40 )">
    <path d="M 47.40625 32.59375  C 47.8020833333333 32.9895833333333  48 33.4583333333333  48 34  L 48 38  C 48 38.5416666666667  47.8020833333333 39.0104166666667  47.40625 39.40625  C 47.0104166666667 39.8020833333333  46.5416666666667 40  46 40  L 2 40  C 1.45833333333333 40  0.989583333333333 39.8020833333333  0.59375 39.40625  C 0.197916666666667 39.0104166666667  0 38.5416666666667  0 38  L 0 34  C 0 33.4583333333333  0.197916666666667 32.9895833333333  0.59375 32.59375  C 0.989583333333333 32.1979166666667  1.45833333333333 32  2 32  L 46 32  C 46.5416666666667 32  47.0104166666667 32.1979166666667  47.40625 32.59375  Z M 47.40625 16.59375  C 47.8020833333333 16.9895833333333  48 17.4583333333333  48 18  L 48 22  C 48 22.5416666666667  47.8020833333333 23.0104166666667  47.40625 23.40625  C 47.0104166666667 23.8020833333333  46.5416666666667 24  46 24  L 2 24  C 1.45833333333333 24  0.989583333333333 23.8020833333333  0.59375 23.40625  C 0.197916666666667 23.0104166666667  0 22.5416666666667  0 22  L 0 18  C 0 17.4583333333333  0.197916666666667 16.9895833333333  0.59375 16.59375  C 0.989583333333333 16.1979166666667  1.45833333333333 16  2 16  L 46 16  C 46.5416666666667 16  47.0104166666667 16.1979166666667  47.40625 16.59375  Z M 47.40625 0.593750000000002  C 47.8020833333333 0.98958333333333  48 1.45833333333333  48 2  L 48 6  C 48 6.54166666666666  47.8020833333333 7.01041666666666  47.40625 7.40625  C 47.0104166666667 7.80208333333333  46.5416666666667 8  46 8  L 2 8  C 1.45833333333333 8  0.989583333333333 7.80208333333333  0.59375 7.40625  C 0.197916666666667 7.01041666666666  0 6.54166666666666  0 6  L 0 2  C 0 1.45833333333333  0.197916666666667 0.98958333333333  0.59375 0.593750000000002  C 0.989583333333333 0.197916666666664  1.45833333333333 0  2 0  L 46 0  C 46.5416666666667 0  47.0104166666667 0.197916666666664  47.40625 0.593750000000002  Z " fill-rule="nonzero" fill="#ff8988" stroke="none" transform="matrix(1 0 0 1 693 40 )" />
  </g>
</svg>