<?xml version="1.0" encoding="utf-8"?>
<svg version="1.1" xmlns:xlink="http://www.w3.org/1999/xlink" width="14px" height="14px" xmlns="http://www.w3.org/2000/svg">
  <g transform="matrix(1 0 0 1 -150 -4 )">
    <path d="M 157 4  C 160.92 4  164 7.08  164 11  C 164 14.92  160.92 18  157 18  C 153.08 18  150 14.92  150 11  C 150 7.08  153.08 4  157 4  Z " fill-rule="nonzero" fill="#ffffff" stroke="none" />
    <path d="M 157 4.5  C 160.64 4.5  163.5 7.36  163.5 11  C 163.5 14.64  160.64 17.5  157 17.5  C 153.36 17.5  150.5 14.64  150.5 11  C 150.5 7.36  153.36 4.5  157 4.5  Z " stroke-width="1" stroke="#797979" fill="none" />
  </g>
</svg>