<?xml version="1.0" encoding="utf-8"?>
<svg version="1.1" xmlns:xlink="http://www.w3.org/1999/xlink" width="32px" height="28px" xmlns="http://www.w3.org/2000/svg">
  <defs>
    <mask fill="white" id="clip24">
      <path d="M 0 28  L 0 0  L 15 0  L 32 0  L 32 28  L 14 28  L 0 28  Z " fill-rule="evenodd" />
    </mask>
  </defs>
  <g transform="matrix(1 0 0 1 -170 -1665 )">
    <path d="M 0 28  L 0 0  L 15 0  L 32 0  L 32 28  L 14 28  L 0 28  Z " fill-rule="nonzero" fill="#ffffff" stroke="none" transform="matrix(1 0 0 1 170 1665 )" />
    <path d="M 0 28  L 0 0  L 15 0  L 32 0  L 32 28  L 14 28  L 0 28  Z " stroke-width="2" stroke="#ff8988" fill="none" transform="matrix(1 0 0 1 170 1665 )" mask="url(#clip24)" />
  </g>
</svg>