<?xml version="1.0" encoding="utf-8"?>
<svg version="1.1" xmlns:xlink="http://www.w3.org/1999/xlink" width="27px" height="27px" xmlns="http://www.w3.org/2000/svg">
  <defs>
    <filter x="544px" y="1120px" width="27px" height="27px" filterUnits="userSpaceOnUse" id="filter13">
      <feOffset dx="1" dy="1" in="SourceAlpha" result="shadowOffsetInner" />
      <feGaussianBlur stdDeviation="2.5" in="shadowOffsetInner" result="shadowGaussian" />
      <feComposite in2="shadowGaussian" operator="atop" in="SourceAlpha" result="shadowComposite" />
      <feColorMatrix type="matrix" values="0 0 0 0 0  0 0 0 0 0  0 0 0 0 0  0 0 0 0.698039215686274 0  " in="shadowComposite" />
    </filter>
    <g id="widget14">
      <path d="M 556.5 1124  C 561.26 1124  565 1127.74  565 1132.5  C 565 1137.26  561.26 1141  556.5 1141  C 551.74 1141  548 1137.26  548 1132.5  C 548 1127.74  551.74 1124  556.5 1124  Z " fill-rule="nonzero" fill="#ec808d" stroke="none" />
      <path d="M 556.5 1124.5  C 560.98 1124.5  564.5 1128.02  564.5 1132.5  C 564.5 1136.98  560.98 1140.5  556.5 1140.5  C 552.02 1140.5  548.5 1136.98  548.5 1132.5  C 548.5 1128.02  552.02 1124.5  556.5 1124.5  Z " stroke-width="1" stroke="#ffffff" fill="none" />
    </g>
  </defs>
  <g transform="matrix(1 0 0 1 -544 -1120 )">
    <use xlink:href="#widget14" filter="url(#filter13)" />
    <use xlink:href="#widget14" />
  </g>
</svg>